<svg id="visual" viewBox="0 0 960 540" width="960" height="540" xmlns="http://www.w3.org/2000/svg" xmlns:xlink="http://www.w3.org/1999/xlink" version="1.1"><rect x="0" y="0" width="960" height="540" fill="#0f91ff"></rect><path d="M0 317L26.7 318.8C53.3 320.7 106.7 324.3 160 336.8C213.3 349.3 266.7 370.7 320 368.8C373.3 367 426.7 342 480 337.5C533.3 333 586.7 349 640 356C693.3 363 746.7 361 800 355.5C853.3 350 906.7 341 933.3 336.5L960 332L960 541L933.3 541C906.7 541 853.3 541 800 541C746.7 541 693.3 541 640 541C586.7 541 533.3 541 480 541C426.7 541 373.3 541 320 541C266.7 541 213.3 541 160 541C106.7 541 53.3 541 26.7 541L0 541Z" fill="#7fd5f6"></path><path d="M0 384L26.7 395.7C53.3 407.3 106.7 430.7 160 442.2C213.3 453.7 266.7 453.3 320 445.3C373.3 437.3 426.7 421.7 480 415.3C533.3 409 586.7 412 640 418.2C693.3 424.3 746.7 433.7 800 434.3C853.3 435 906.7 427 933.3 423L960 419L960 541L933.3 541C906.7 541 853.3 541 800 541C746.7 541 693.3 541 640 541C586.7 541 533.3 541 480 541C426.7 541 373.3 541 320 541C266.7 541 213.3 541 160 541C106.7 541 53.3 541 26.7 541L0 541Z" fill="#6cbff8"></path><path d="M0 509L26.7 501.7C53.3 494.3 106.7 479.7 160 466.7C213.3 453.7 266.7 442.3 320 445.8C373.3 449.3 426.7 467.7 480 477.2C533.3 486.7 586.7 487.3 640 489C693.3 490.7 746.7 493.3 800 484.7C853.3 476 906.7 456 933.3 446L960 436L960 541L933.3 541C906.7 541 853.3 541 800 541C746.7 541 693.3 541 640 541C586.7 541 533.3 541 480 541C426.7 541 373.3 541 320 541C266.7 541 213.3 541 160 541C106.7 541 53.3 541 26.7 541L0 541Z" fill="#73a6f3"></path></svg>